Coordinates
version=1
nRows=11
nColumns=40
inDegrees=yes

Units are S.I. units (second, meters, Newtons, ...)
If the header above contains a line with 'inDegrees', this indicates whether rotational values are in degrees (yes) or radians (no).

endheader
time	pelvis_tilt	pelvis_list	pelvis_rotation	pelvis_tx	pelvis_ty	pelvis_tz	hip_flexion_r	hip_adduction_r	hip_rotation_r	knee_angle_r	knee_angle_r_beta	ankle_angle_r	subtalar_angle_r	mtp_angle_r	hip_flexion_l	hip_adduction_l	hip_rotation_l	knee_angle_l	knee_angle_l_beta	ankle_angle_l	subtalar_angle_l	mtp_angle_l	lumbar_extension	lumbar_bending	lumbar_rotation	arm_flex_r	arm_add_r	arm_rot_r	elbow_flex_r	pro_sup_r	wrist_flex_r	wrist_dev_r	arm_flex_l	arm_add_l	arm_rot_l	elbow_flex_l	pro_sup_l	wrist_flex_l	wrist_dev_l
      0.15000000	     16.01932115	     13.75807832	    -11.18000974	     -0.06990774	      0.93830197	     -0.20229927	    -28.13178748	    -22.47276694	     -7.50387019	     40.55212064	      0.70776802	    -14.82350742	      0.00000000	      0.00000000	      8.65324714	     12.78457727	    -14.99841405	     23.27668373	      0.40625477	      3.27570137	      0.00000000	      0.00000000	    -26.44489822	    -21.25255889	     11.44860042	      5.85640731	     -1.23062017	     -3.96527728	     64.49832517	     89.26847844	    -15.03661317	     -2.12655609	     -0.00004067	     -5.25085667	     27.85055683	      9.98527486	     89.40111849	    -14.03449196	     13.56284221
      0.16000000	     16.41769117	     14.05383606	    -11.35192711	     -0.05375100	      0.94110159	     -0.20396778	    -26.39168626	    -23.12493915	     -6.18705200	     44.14001821	      0.77038865	    -15.82274824	      0.00000000	      0.00000000	      7.25923560	     13.60409018	    -14.67586584	     23.21787773	      0.40522841	      4.19796309	      0.00000000	      0.00000000	    -26.88804990	    -21.55085916	     11.12301949	      5.50825630	     -1.12556477	     -3.92678468	     63.73932525	     89.27610490	    -14.70598769	     -1.81146207	      0.61603029	     -5.16344604	     27.71082510	     10.49326088	     89.39306866	    -15.36032746	     12.14373155
      0.17000000	     16.51690942	     14.36025038	    -11.61750657	     -0.03814681	      0.94358147	     -0.20539876	    -23.95413305	    -23.68195488	     -4.44082815	     47.87451419	      0.83556790	    -16.00955556	      0.00000000	      0.00000000	      6.13772934	     14.37149051	    -14.45614366	     22.94589589	      0.40048143	      5.12603059	      0.00000000	      0.00000000	    -26.98946880	    -21.86918603	     10.78500406	      5.31680658	     -1.04137457	     -3.51740621	     62.64267548	     89.28922916	    -14.65331310	     -1.54603843	      1.19910844	     -5.13092054	     27.21111040	     11.23217352	     89.39523168	    -16.19965827	     11.06942372
      0.18000000	     16.54012196	     14.53494169	    -11.99146439	     -0.02301077	      0.94602955	     -0.20667680	    -21.19405251	    -23.98880950	     -2.37323985	     51.54128628	      0.89956515	    -15.31026504	      0.00000000	      0.00000000	      5.00038710	     14.99808019	    -14.32739202	     22.45365638	      0.39189023	      6.03902847	      0.00000000	      0.00000000	    -27.02548760	    -22.06633968	     10.42243086	      5.26318764	     -0.99079580	     -2.89704967	     61.35993975	     89.29047021	    -14.61174808	     -1.33634691	      1.71032712	     -5.05265400	     26.31429110	     12.11114313	     89.39252240	    -17.52771384	      9.61564731
      0.19000000	     16.49976262	     14.60808570	    -12.35136919	     -0.00844624	      0.94861076	     -0.20766537	    -18.25090736	    -24.00772207	     -0.27586417	     54.95618914	      0.95916644	    -14.12084874	      0.00000000	      0.00000000	      3.84950814	     15.49081313	    -14.21872281	     21.78585724	      0.38023494	      6.85169127	      0.00000000	      0.00000000	    -27.11432888	    -22.20571108	      9.93102045	      5.37071085	     -0.97116049	     -1.97923078	     59.86553611	     89.30604853	    -14.60615620	     -1.19414648	      2.22005213	     -4.99267733	     25.00064382	     13.14844887	     89.39925825	    -19.33787105	      7.85113475
      0.20000000	     16.43879209	     14.47612307	    -12.66479410	      0.00609710	      0.95127115	     -0.20866479	    -15.33475221	    -23.65923937	      1.70014465	     58.01392220	      1.01253395	    -12.41661873	      0.00000000	      0.00000000	      2.56024474	     15.80892747	    -13.95212010	     20.91279875	      0.36499719	      7.54649768	      0.00000000	      0.00000000	    -27.17563803	    -22.07279725	      9.39999992	      5.49069177	     -0.98862852	     -0.92569576	     58.28905250	     89.32202980	    -14.63610485	     -1.05458377	      2.68828014	     -4.91800961	     23.66586447	     14.29034245	     89.40650555	    -21.03504821	      6.21019023
      0.21000000	     16.38952736	     14.15615113	    -12.92935176	      0.02007514	      0.95408165	     -0.20951066	    -12.49727308	    -22.94031664	      3.54912063	     60.65152251	      1.05856876	    -10.07956943	      0.00000000	      0.00000000	      1.23913748	     15.89633795	    -13.69639760	     20.08762368	      0.35059517	      8.23248174	      0.00000000	      0.00000000	    -27.32714864	    -21.74284618	      8.96172427	      5.66091977	     -1.02104831	      0.03869575	     56.62444718	     89.33936370	    -14.63974761	     -0.82182040	      3.35500323	     -4.81129184	     22.53593784	     15.37089501	     89.41403296	    -22.38129450	      4.85667028
      0.22000000	     16.20276791	     13.79822658	    -13.16944058	      0.03406712	      0.95674621	     -0.21033651	     -9.55343275	    -22.05549845	      5.22361709	     62.88597105	      1.09756725	     -7.82639359	      0.00000000	      0.00000000	     -0.05015394	     15.93130580	    -13.44115529	     19.03050925	      0.33214504	      8.63595836	      0.00000000	      0.00000000	    -27.35607675	    -21.32963640	      8.26067461	      5.95954878	     -1.05019489	      1.35742778	     54.78989126	     89.35022515	    -14.66823567	     -0.63124599	      3.75158525	     -4.72825891	     20.67343488	     16.78585446	     89.42130638	    -24.20031370	      3.14796442
      0.23000000	     16.11505617	     13.19780446	    -13.21051486	      0.04804882	      0.95969749	     -0.21134722	     -7.05090718	    -20.82851917	      6.38489211	     64.48341200	      1.12544785	     -5.30458547	      0.00000000	      0.00000000	     -1.54504641	     15.73318081	    -12.94668444	     17.98657252	      0.31392491	      8.99119456	      0.00000000	      0.00000000	    -27.57612888	    -20.57731591	      7.46874135	      6.23812213	     -1.11727843	      2.68069499	     52.95429601	     89.36581914	    -14.70436476	     -0.38707636	      4.19976201	     -4.64188808	     18.89013573	     18.30928445	     89.43308260	    -25.51887990	      1.86524670
      0.24000000	     15.94673460	     12.49840948	    -13.15472537	      0.06201153	      0.96253040	     -0.21238001	     -4.63708659	    -19.39841755	      7.27772807	     65.56861008	      1.14438813	     -2.90313591	      0.00000000	      0.00000000	     -2.99853658	     15.38707506	    -12.47492025	     16.93028527	      0.29548922	      9.27256510	      0.00000000	      0.00000000	    -27.73472361	    -19.67299697	      6.79771618	      6.39525532	     -1.20183651	      3.78529608	     51.22487909	     89.38326582	    -14.63954247	      0.00466957	      4.76544604	     -4.54621653	     17.36265053	     19.81181738	     89.44460132	    -26.50161310	      0.86259008
      0.25000000	     15.78343766	     11.74964659	    -12.93907397	      0.07620496	      0.96535224	     -0.21348554	     -2.48724129	    -17.90576870	      7.72887910	     66.07856917	      1.15328860	     -0.75534832	      0.00000000	      0.00000000	     -4.52157414	     14.96712384	    -11.81615861	     15.83415234	      0.27635809	      9.39345171	      0.00000000	      0.00000000	    -27.86333135	    -18.67527605	      6.70055287	      6.03650649	     -1.34897848	      4.05134504	     49.90430680	     89.40278411	    -14.60045634	      0.35568292	      5.85885372	     -4.40916053	     17.11622314	     20.89315952	     89.45027778	    -26.74604801	      0.52127663
